# xmcd CD database file
#
# Track frame offsets:
#	150
#	74128
#	113418
#	152534
#	210899
#	229461
#	245558
#	273539
#	293153
#
# Disc length: 4243 seconds
#
# Revision: 2
# Processed by: cddbd v1.5.2PL0 Copyright (c) Steve Scherf et al.
# Submitted via: CDex 1.70beta2
#
DISCID=81109109
DTITLE=Various Artist - Jazz Roads CD399 - Bebop - Bebop Live Concerts Vol.10
DYEAR=1900
DGENRE=Jazz
TTITLE0=Chet Baker - Out Of Nowhere
TTITLE1=Chet Baker - Strike Up The Band
TTITLE2=Chet Baker - Pennies From Heaven
TTITLE3=Gerry Mulligan - Tiny's Blues
TTITLE4=Gerry Mulligan - Medley: I Cover Up The Waterfront - Iﾴm In The Mood For Love
TTITLE5=Gerry Mulligan - Out Of Nowhere
TTITLE6=Gerry Mulligan - Our Delight
TTITLE7=Gerry Mulligan - Lullaby Of The Leaves
TTITLE8=Gerry Mulligan - Blues
EXTD=
EXTT0=
EXTT1=
EXTT2=
EXTT3=
EXTT4=
EXTT5=
EXTT6=
EXTT7=
EXTT8=
PLAYORDER=
